<?xml version="1.0" encoding="iso-8859-1"?><!-- Generator: Adobe Illustrator 21.1.0, SVG Export Plug-In . SVG Version: 6.00 Build 0)  --><svg xmlns="http://www.w3.org/2000/svg" xmlns:xlink="http://www.w3.org/1999/xlink" viewBox="0 0 50 50" width="500px" height="500px"><path d="M41,4H9C6.24,4,4,6.24,4,9v32c0,2.76,2.24,5,5,5h32c2.76,0,5-2.24,5-5V9C46,6.24,43.76,4,41,4z M15.59,37.59l5.16-5.17c-1.73-0.48-3.38-1.23-4.88-2.28c-0.9-0.63-1.13-1.87-0.5-2.78c0.39-0.56,1.01-0.86,1.65-0.86c0.39,0,0.79,0.12,1.14,0.36C20.17,28.26,22.54,29,25,29c2.47,0,4.84-0.74,6.86-2.15c0.34-0.24,0.74-0.36,1.14-0.36c0.63,0,1.25,0.3,1.64,0.86c0.63,0.9,0.41,2.15-0.5,2.78c-1.5,1.05-3.15,1.81-4.89,2.29l5.16,5.17c0.79,0.78,0.79,2.04,0,2.82C34.02,40.8,33.51,41,33,41s-1.02-0.2-1.41-0.59L25,33.83l-6.59,6.58C18.02,40.8,17.51,41,17,41s-1.02-0.2-1.41-0.59C14.8,39.63,14.8,38.37,15.59,37.59z M25,25c-4.42,0-8-3.58-8-8s3.58-8,8-8s8,3.58,8,8S29.42,25,25,25z"/><circle cx="25" cy="17" r="4"/></svg>